<?xml version="1.0" standalone="no"?>
<!DOCTYPE svg PUBLIC "-//W3C//DTD SVG 20010904//EN"
 "http://www.w3.org/TR/2001/REC-SVG-20010904/DTD/svg10.dtd">
<svg version="1.0" xmlns="http://www.w3.org/2000/svg"
 width="858.000000pt" height="797.000000pt" viewBox="0 0 858.000000 797.000000"
 preserveAspectRatio="xMidYMid meet">

<g transform="translate(0.000000,797.000000) scale(0.100000,-0.100000)"
fill="#000000" stroke="none">
<path d="M3715 6818 c-217 -15 -646 -122 -850 -211 -237 -104 -301 -133 -420
-194 -270 -137 -333 -173 -550 -315 -109 -72 -152 -108 -270 -229 -193 -198
-241 -255 -333 -399 -201 -316 -349 -702 -393 -1030 -6 -41 -19 -99 -29 -127
-11 -29 -29 -124 -41 -210 -27 -203 -23 -468 10 -638 23 -122 78 -296 124
-395 45 -98 133 -226 217 -314 77 -81 234 -213 305 -256 22 -13 42 -27 45 -30
10 -13 127 -73 216 -111 261 -111 771 -149 1274 -95 275 30 361 45 514 91 274
81 413 141 583 251 47 31 88 52 92 47 14 -20 101 -84 181 -133 190 -118 372
-194 531 -225 44 -8 84 -17 89 -20 20 -12 239 -35 441 -46 296 -15 414 -5 744
66 131 27 172 40 315 92 339 125 654 372 802 628 99 173 140 271 186 440 26
97 27 109 26 350 -1 200 -6 277 -22 386 -54 349 -132 601 -252 809 -23 41 -56
100 -73 130 -65 118 -219 320 -357 465 -47 50 -112 123 -144 163 -66 84 -337
331 -476 434 -52 39 -113 88 -135 109 -53 49 -250 167 -386 230 -291 135 -771
262 -1074 284 -124 9 -780 11 -890 3z m985 -63 c379 -60 838 -190 985 -280 22
-13 60 -34 84 -45 24 -11 55 -29 70 -39 14 -10 58 -36 96 -56 39 -21 110 -72
159 -114 49 -42 110 -94 136 -116 179 -152 249 -215 280 -250 19 -21 65 -71
101 -110 139 -148 373 -412 412 -464 45 -62 191 -310 229 -391 48 -102 57
-126 97 -246 45 -132 103 -409 121 -581 8 -71 11 -184 7 -305 -5 -206 -21
-291 -82 -453 -35 -92 -124 -260 -182 -344 -46 -66 -185 -209 -259 -267 -65
-50 -211 -142 -293 -184 -222 -112 -571 -213 -801 -230 -58 -4 -114 -11 -125
-14 -11 -4 -132 0 -270 8 -224 14 -297 22 -470 56 -27 6 -69 13 -92 16 -24 4
-43 11 -43 15 0 5 -12 9 -28 9 -54 0 -222 73 -393 172 -208 119 -389 329 -440
508 -8 29 -12 101 -11 202 1 161 -5 186 -35 155 -24 -23 -23 -288 0 -374 28
-105 102 -229 181 -302 14 -14 26 -28 26 -33 0 -13 -130 -93 -238 -147 -149
-74 -454 -174 -622 -202 -229 -39 -368 -51 -656 -56 -321 -6 -476 3 -618 36
-45 11 -108 24 -141 30 -32 6 -104 33 -160 60 -282 138 -533 355 -667 576 -55
91 -138 308 -153 402 -4 21 -16 81 -27 133 -19 85 -20 117 -15 295 5 204 19
317 62 500 13 55 26 129 30 163 8 73 58 249 105 367 17 44 39 103 48 130 33
100 195 403 297 556 85 128 125 175 222 270 200 193 328 287 603 436 180 99
635 312 770 361 158 57 421 123 630 156 136 22 916 15 1070 -9z"/>
<path d="M2521 1510 c-68 -8 -126 -20 -128 -26 -7 -22 21 -32 64 -25 l43 8 2
-176 c3 -168 4 -176 23 -176 19 0 20 8 23 175 2 124 6 176 15 182 6 4 29 8 50
8 37 0 61 22 41 39 -5 3 -65 0 -133 -9z"/>
<path d="M3125 1518 c-2 -7 -31 -90 -65 -184 -64 -182 -71 -218 -42 -212 11 2
25 25 38 63 23 63 25 65 111 78 l42 7 23 -71 c22 -71 40 -91 60 -71 6 6 -12
68 -56 189 -36 99 -66 187 -66 196 0 20 -38 24 -45 5z m59 -185 c6 -18 3 -23
-16 -27 -13 -3 -35 -7 -50 -10 l-27 -6 18 52 c35 100 33 97 52 53 9 -22 20
-50 23 -62z"/>
<path d="M4040 1504 c-41 -35 -66 -87 -81 -166 -15 -82 -5 -149 27 -188 22
-25 33 -30 70 -30 38 0 50 6 88 43 51 49 76 117 76 209 0 65 -26 130 -59 148
-36 19 -87 12 -121 -16z m111 -40 c21 -22 24 -35 24 -97 -1 -87 -17 -137 -57
-177 -36 -37 -80 -40 -102 -8 -19 27 -22 142 -4 201 14 47 67 107 95 107 11 0
30 -12 44 -26z"/>
<path d="M5267 1523 c-4 -3 -7 -79 -7 -168 0 -149 -2 -164 -21 -189 -21 -27
-62 -35 -75 -15 -4 7 -7 24 -8 38 -1 19 -6 26 -21 26 -32 0 -32 -54 -1 -88 44
-48 122 -31 153 32 22 46 33 332 13 356 -14 16 -23 19 -33 8z"/>
<path d="M2770 1513 c-52 -5 -66 -15 -55 -40 5 -10 7 -87 6 -171 -2 -109 0
-157 9 -167 17 -20 100 -18 170 3 43 14 56 23 58 40 4 27 0 27 -67 1 -30 -11
-70 -19 -90 -17 l-36 3 -3 71 -3 72 33 5 c18 4 57 9 86 13 42 5 52 10 52 25 0
21 -18 23 -107 10 l-53 -7 0 57 0 57 68 7 c98 9 96 9 100 28 3 15 -5 17 -60
15 -35 -1 -83 -3 -108 -5z"/>
<path d="M3358 1513 c-2 -4 -2 -95 0 -200 3 -183 5 -193 23 -193 18 0 19 8 19
128 l0 127 21 -45 c12 -25 34 -79 49 -120 37 -99 53 -101 79 -13 11 37 34 102
50 143 l30 75 0 -147 c1 -141 2 -148 21 -148 11 0 20 3 20 8 3 125 4 235 2
305 -2 80 -4 87 -22 87 -23 0 -40 -33 -99 -197 l-37 -103 -56 128 c-31 70 -58
136 -60 147 -3 20 -33 33 -40 18z"/>
<path d="M4279 1408 c-2 -7 -2 -76 1 -153 4 -116 8 -140 20 -140 12 0 16 18
18 87 l3 86 40 37 c26 23 48 35 62 33 21 -3 22 -9 27 -118 4 -93 8 -115 20
-115 32 0 31 255 -1 276 -20 14 -64 3 -107 -26 l-37 -25 -5 32 c-5 33 -34 51
-41 26z"/>
<path d="M4646 1389 c-47 -41 -73 -85 -86 -147 -13 -57 -4 -84 31 -103 27 -14
102 13 124 44 8 11 17 18 21 14 12 -12 -7 -98 -27 -118 -23 -23 -66 -25 -90
-3 -21 19 -49 12 -49 -10 0 -21 51 -46 93 -46 39 0 80 28 102 70 22 42 21 277
-1 308 -23 33 -75 30 -118 -9z m92 -38 c10 -71 -54 -171 -109 -171 -16 0 -29
6 -30 13 -5 52 25 123 69 164 32 30 66 27 70 -6z"/>
<path d="M5449 1404 c-91 -57 -117 -239 -39 -279 65 -34 159 30 178 121 14 63
-1 138 -31 159 -28 19 -75 19 -108 -1z m92 -45 c17 -32 6 -125 -18 -156 -27
-37 -75 -56 -98 -39 -38 28 -8 176 42 205 30 17 61 13 74 -10z"/>
<path d="M5659 1408 c-2 -7 -2 -76 1 -153 4 -116 8 -140 20 -140 12 0 16 18
18 87 l3 86 40 37 c26 23 48 35 62 33 21 -3 22 -9 27 -118 4 -93 8 -115 20
-115 32 0 31 255 -1 276 -20 14 -64 3 -107 -26 l-37 -25 -5 32 c-5 33 -34 51
-41 26z"/>
<path d="M6026 1389 c-47 -41 -73 -85 -86 -147 -13 -57 -4 -84 31 -103 27 -14
102 13 124 44 8 11 17 18 21 14 12 -12 -7 -98 -27 -118 -23 -23 -66 -25 -90
-3 -21 19 -49 12 -49 -10 0 -21 51 -46 93 -46 39 0 80 28 102 70 22 42 21 277
-1 308 -23 33 -75 30 -118 -9z m92 -38 c10 -71 -54 -171 -109 -171 -16 0 -29
6 -30 13 -5 52 25 123 69 164 32 30 66 27 70 -6z"/>
<path d="M4930 1346 c-75 -10 -85 -13 -85 -31 0 -23 3 -23 128 -11 83 8 87 10
87 32 0 27 0 27 -130 10z"/>
</g>
</svg>
